<svg width="79" height="25" viewBox="0 0 79 25" fill="none" xmlns="http://www.w3.org/2000/svg">
<rect width="38" height="25" rx="4" fill="#2076F8"/>
<path d="M6.088 18V6.8H8.136V18H6.088ZM15.3788 18.192C14.2481 18.192 13.2774 17.952 12.4668 17.472C11.6561 16.9813 11.0321 16.304 10.5948 15.44C10.1574 14.5653 9.93875 13.5573 9.93875 12.416C9.93875 11.2747 10.1574 10.2667 10.5948 9.392C11.0321 8.51733 11.6561 7.83467 12.4668 7.344C13.2774 6.85333 14.2481 6.608 15.3788 6.608C16.7228 6.608 17.8214 6.944 18.6748 7.616C19.5388 8.27733 20.0774 9.21067 20.2908 10.416H18.0347C17.8961 9.808 17.5974 9.33333 17.1388 8.992C16.6908 8.64 16.0934 8.464 15.3468 8.464C14.3121 8.464 13.5014 8.816 12.9148 9.52C12.3281 10.224 12.0348 11.1893 12.0348 12.416C12.0348 13.6427 12.3281 14.608 12.9148 15.312C13.5014 16.0053 14.3121 16.352 15.3468 16.352C16.0934 16.352 16.6908 16.192 17.1388 15.872C17.5974 15.5413 17.8961 15.088 18.0347 14.512H20.2908C20.0774 15.664 19.5388 16.5653 18.6748 17.216C17.8214 17.8667 16.7228 18.192 15.3788 18.192ZM27.1756 18.192C26.045 18.192 25.0743 17.952 24.2636 17.472C23.453 16.9813 22.829 16.304 22.3916 15.44C21.9543 14.5653 21.7356 13.5573 21.7356 12.416C21.7356 11.2747 21.9543 10.2667 22.3916 9.392C22.829 8.51733 23.453 7.83467 24.2636 7.344C25.0743 6.85333 26.045 6.608 27.1756 6.608C28.5196 6.608 29.6183 6.944 30.4716 7.616C31.3356 8.27733 31.8743 9.21067 32.0876 10.416H29.8316C29.693 9.808 29.3943 9.33333 28.9356 8.992C28.4876 8.64 27.8903 8.464 27.1436 8.464C26.109 8.464 25.2983 8.816 24.7116 9.52C24.125 10.224 23.8316 11.1893 23.8316 12.416C23.8316 13.6427 24.125 14.608 24.7116 15.312C25.2983 16.0053 26.109 16.352 27.1436 16.352C27.8903 16.352 28.4876 16.192 28.9356 15.872C29.3943 15.5413 29.693 15.088 29.8316 14.512H32.0876C31.8743 15.664 31.3356 16.5653 30.4716 17.216C29.6183 17.8667 28.5196 18.192 27.1756 18.192Z" fill="white"/>
<path d="M41.2535 18V16.512C41.9362 15.9467 42.5975 15.3867 43.2375 14.832C43.8882 14.2773 44.4642 13.728 44.9655 13.184C45.4775 12.64 45.8828 12.112 46.1815 11.6C46.4908 11.0773 46.6455 10.5707 46.6455 10.08C46.6455 9.62133 46.5175 9.216 46.2615 8.864C46.0162 8.512 45.6055 8.336 45.0295 8.336C44.4428 8.336 44.0002 8.528 43.7015 8.912C43.4028 9.296 43.2535 9.76 43.2535 10.304H41.2695C41.2908 9.48267 41.4722 8.8 41.8135 8.256C42.1548 7.70133 42.6082 7.29067 43.1735 7.024C43.7388 6.74667 44.3735 6.608 45.0775 6.608C46.2188 6.608 47.1042 6.92267 47.7335 7.552C48.3735 8.17067 48.6935 8.976 48.6935 9.968C48.6935 10.5867 48.5495 11.1893 48.2615 11.776C47.9842 12.3627 47.6162 12.928 47.1575 13.472C46.6988 14.016 46.2028 14.528 45.6695 15.008C45.1362 15.4773 44.6188 15.9147 44.1175 16.32H48.9655V18H41.2535ZM55.18 18.192C54.1453 18.192 53.26 17.952 52.524 17.472C51.788 16.9813 51.2173 16.304 50.812 15.44C50.4173 14.5653 50.22 13.552 50.22 12.4C50.22 11.2587 50.4173 10.2507 50.812 9.376C51.2173 8.50133 51.788 7.824 52.524 7.344C53.26 6.85333 54.1453 6.608 55.18 6.608C56.2147 6.608 57.1 6.85333 57.836 7.344C58.572 7.824 59.1373 8.50133 59.532 9.376C59.9373 10.2507 60.14 11.2587 60.14 12.4C60.14 13.552 59.9373 14.5653 59.532 15.44C59.1373 16.304 58.572 16.9813 57.836 17.472C57.1 17.952 56.2147 18.192 55.18 18.192ZM55.18 16.352C56.0227 16.352 56.7107 16 57.244 15.296C57.7773 14.592 58.044 13.6267 58.044 12.4C58.044 11.1733 57.7773 10.208 57.244 9.504C56.7107 8.8 56.0227 8.448 55.18 8.448C54.3267 8.448 53.6333 8.8 53.1 9.504C52.5773 10.208 52.316 11.1733 52.316 12.4C52.316 13.6267 52.5773 14.592 53.1 15.296C53.6333 16 54.3267 16.352 55.18 16.352ZM61.5973 18V16.512C62.2799 15.9467 62.9413 15.3867 63.5813 14.832C64.2319 14.2773 64.8079 13.728 65.3093 13.184C65.8213 12.64 66.2266 12.112 66.5253 11.6C66.8346 11.0773 66.9893 10.5707 66.9893 10.08C66.9893 9.62133 66.8613 9.216 66.6053 8.864C66.3599 8.512 65.9493 8.336 65.3733 8.336C64.7866 8.336 64.3439 8.528 64.0453 8.912C63.7466 9.296 63.5973 9.76 63.5973 10.304H61.6133C61.6346 9.48267 61.8159 8.8 62.1573 8.256C62.4986 7.70133 62.9519 7.29067 63.5173 7.024C64.0826 6.74667 64.7173 6.608 65.4213 6.608C66.5626 6.608 67.4479 6.92267 68.0773 7.552C68.7173 8.17067 69.0373 8.976 69.0373 9.968C69.0373 10.5867 68.8933 11.1893 68.6053 11.776C68.3279 12.3627 67.9599 12.928 67.5013 13.472C67.0426 14.016 66.5466 14.528 66.0133 15.008C65.4799 15.4773 64.9626 15.9147 64.4613 16.32H69.3093V18H61.5973ZM74.6739 18.192C73.9379 18.192 73.2712 18.064 72.6739 17.808C72.0765 17.5413 71.5965 17.136 71.2339 16.592C70.8712 16.048 70.6792 15.3653 70.6579 14.544H72.6739C72.6845 15.088 72.8605 15.5467 73.2019 15.92C73.5539 16.2827 74.0445 16.464 74.6739 16.464C75.2712 16.464 75.7299 16.2987 76.0499 15.968C76.3699 15.6373 76.5299 15.2213 76.5299 14.72C76.5299 14.1333 76.3165 13.6907 75.8899 13.392C75.4739 13.0827 74.9352 12.928 74.2739 12.928H73.4419V11.248H74.2899C74.8339 11.248 75.2872 11.12 75.6499 10.864C76.0125 10.608 76.1939 10.2293 76.1939 9.728C76.1939 9.312 76.0552 8.98133 75.7779 8.736C75.5112 8.48 75.1379 8.352 74.6579 8.352C74.1352 8.352 73.7245 8.50667 73.4259 8.816C73.1379 9.12533 72.9779 9.504 72.9459 9.952H70.9459C70.9885 8.91733 71.3459 8.10133 72.0179 7.504C72.7005 6.90667 73.5805 6.608 74.6579 6.608C75.4259 6.608 76.0712 6.74667 76.5939 7.024C77.1272 7.29067 77.5272 7.648 77.7939 8.096C78.0712 8.544 78.2099 9.04 78.2099 9.584C78.2099 10.2133 78.0339 10.7467 77.6819 11.184C77.3405 11.6107 76.9139 11.8987 76.4019 12.048C77.0312 12.176 77.5432 12.4853 77.9379 12.976C78.3325 13.456 78.5299 14.064 78.5299 14.8C78.5299 15.4187 78.3805 15.984 78.0819 16.496C77.7832 17.008 77.3459 17.4187 76.7699 17.728C76.2045 18.0373 75.5059 18.192 74.6739 18.192Z" fill="black"/>
</svg>
